<?xml version="1.0" encoding="UTF-8" standalone="no"?>
<!-- Uploaded to: SVG Repo, www.svgrepo.com, Generator: SVG Repo Mixer Tools -->

<svg
    xmlns:inkscape="http://www.inkscape.org/namespaces/inkscape"
    xmlns:sodipodi="http://sodipodi.sourceforge.net/DTD/sodipodi-0.dtd"
    version="1.1"
    id="hat"
    width="598.82501"
    height="612.48431"
    viewBox="0 0 47.906001 48.998745"
    enable-background="new 0 0 64 64"
    xml:space="preserve"
    sodipodi:docname="logo.svg"
    inkscape:version="1.2.2 (b0a8486541, 2022-12-01)"
    xmlns="http://www.w3.org/2000/svg"
><defs
   id="defs266" />
    <sodipodi:namedview
        id="namedview264"
        pagecolor="#ffffff"
        bordercolor="#000000"
        borderopacity="0.25"
        inkscape:showpageshadow="2"
        inkscape:pageopacity="0.0"
        inkscape:pagecheckerboard="true"
        inkscape:deskcolor="#d1d1d1"
        showgrid="false"
        inkscape:zoom="1.18"
        inkscape:cx="325"
        inkscape:cy="291.10169"
        inkscape:window-width="1862"
        inkscape:window-height="1131"
        inkscape:window-x="58"
        inkscape:window-y="32"
        inkscape:window-maximized="1"
        inkscape:current-layer="hat"
        showborder="true"/>
    <path
        fill="#2F3750"
        d="m 9.029,35.169743 c -4.838,1.006 -8.03,2.491 -8.03,4.632 0,3.925 10.277,8.198 22.953,8.198 12.677,0 22.954,-4.273 22.954,-8.198 0,-2.155 -2.927,-3.721 -7.824,-4.727 L 34.883,13.022743 14.115,0.99974309 3.184,19.581743 l 12.024,-6.559 -0.002,-0.003 2.188,4.375 z"
        id="path233"
        style="fill:#ffcc00"/>
    <path
        fill="#262C42"
        d="m 39.082,35.074743 c 4.897,1.006 7.824,2.571 7.824,4.727 0,3.925 -10.277,8.198 -22.954,8.198 -2.076,0 -4.087,-0.116 -6,-0.325 9.767,-1.068 16.954,-4.591 16.954,-7.873 0,-0.335 0,0.198 0,-0.802 3,-1 4,-3 4.176,-3.925 z"
        id="path235"
        style="fill:#ffcc00"/>
    <path
        fill="#424A66"
        d="m 9.029,35.169743 c 0.172,-0.604 8.365,-17.774 8.365,-17.774 l 0.949,0.167 -5.687,20.437 c -0.687,-0.219 -4.031,-1.406 -3.627,-2.83 z"
        id="path237"
        style="fill:#ffcc00"/>
    <path
        fill="#424A66"
        d="m 6.135,40.803743 c 0.23,-1.437 4.438,-2.51 6.584,-2.49 l -2.946,-2.23 c -4.516,0.159 -7.592,1.037 -7.972,3.026 -0.269,1.411 0.81,3.126 2.891,4.85 1.597,0.924 3.689,1.763 6.142,2.441 -3.198,-2.003 -4.946,-4.059 -4.699,-5.597 z"
        id="path239"
        style="fill:#ffcc00"/>
    <polygon
        fill="#262C42"
        points="21.688,17.125 11.278,26.582 23.303,20.023 23.301,20.021 22.209,17.837 "
        id="polygon241"
        style="fill:#ffcc00"
        transform="translate(-8.094,-7.0002569)"/>
    <path
        fill="#262C42"
        d="m 38.08,29.810743 -3.197,-16.787 -20.768,-12.02399991 3.279,2.81300001 12.543,10.7809999 3.62,17.547 c 1.121,-0.319 3.603,-1.332 4.523,-2.33 z"
        id="path243"
        style="fill:#ffcc00"/>
    <path
        fill="#674172"
        d="m 28.594,40.062743 c 5.239,-0.645 9.333,-2.306 10.73,-4.086 l -1.163,-6.521 c -2.001,1.588 -5.631,3.282 -10.011,3.99"
        id="path245"
        style="fill:#ffcc00"/>
    <path
        fill="#4F3058"
        d="m 34.906,38.999743 c 3.367,-0.823 3.819,-1.704 4.854,-3.023 l -1.164,-6.521 c -1.512,1.199 -2.33,1.607 -5.079,2.585 l 1.107,5.584 z"
        id="path247"
        style="fill:#ffcc00"/>
    <path
        fill="#674172"
        d="m 19.211,40.049743 c -5.191,-0.653 -9.243,-2.304 -10.632,-4.073 l 2.664,-5.501 c 2.072,1.238 5.029,2.39 8.441,2.951"
        id="path249"
        style="fill:#ffcc00"/>
    <path
        fill="#785083"
        d="m 11.243,30.475743 -1.54,3.18 c -0.395,0.854 -0.646,1.415 -0.674,1.515 -0.404,1.424 2.939,2.611 3.627,2.83 l 1.68,-6.036 c -1.166,-0.457 -2.213,-0.964 -3.093,-1.489 z"
        id="path251"
        style="fill:#ffcc00"/>
    <path
        fill="#f4d08c"
        d="m 28.906,38.999743 c 0,1.104 -0.896,2 -2,2 h -6 c -1.104,0 -2,-0.896 -2,-2 v -4 c 0,-1.104 0.896,-2 2,-2 h 6 c 1.104,0 2,0.896 2,2 z"
        id="path253"/>
    <path
        fill="#feda96"
        d="m 20.906,38.999743 v -4 c 0,-1.104 0.896,-2 2,-2 h -2 c -1.104,0 -2,0.896 -2,2 v 4 c 0,1.104 0.896,2 2,2 h 2 c -1.104,0 -2,-0.896 -2,-2 z"
        id="path255"/>
    <path
        fill="#D7AF75"
        d="m 26.906,32.999743 h -3 c 1.104,0 2,0.896 2,2 v 4 c 0,1.104 -0.896,2 -2,2 h 3 c 1.104,0 2,-0.896 2,-2 v -4 c 0,-1.104 -0.896,-2 -2,-2 z"
        id="path257"
        style="fill:#decd87"/>
    <path
        fill="#272223"
        d="m 39.941,34.241743 -4.076,-21.406 c -0.055,-0.285 -0.23,-0.532 -0.481,-0.678 L 14.616,0.13474309 c -0.474,-0.275 -1.085,-0.116 -1.363,0.358 L 2.323,19.074743 c -0.228,0.388 -0.169,0.879 0.144,1.202 0.313,0.323 0.802,0.398 1.197,0.183 l 11.114,-6.063 1.506,3.012 -7.88,16.743 c -5.572,1.205 -8.404,3.104 -8.404,5.649 0,4.9 11.193,9.198 23.953,9.198 12.76,0.001 23.953,-4.297 23.953,-9.197 0,-2.484 -2.682,-4.351 -7.965,-5.56 z m -30.117,1.588 1.864,-3.961 c 1.871,0.979 4.064,1.754 6.362,2.258 -0.084,0.277 -0.144,0.567 -0.144,0.873 v 3.845 c -4.025,-0.677 -6.806,-1.899 -8.082,-3.015 z m 10.082,3.17 v -4 c 0,-0.552 0.448,-1 1,-1 h 6 c 0.552,0 1,0.448 1,1 v 4 c 0,0.552 -0.448,1 -1,1 h -6 c -0.552,0 -1,-0.448 -1,-1 z m 9.864,-4.844 c 2.83,-0.612 5.489,-1.648 7.563,-2.922 l 0.855,4.496 c -1.232,1.154 -4.087,2.438 -8.282,3.131 v -3.861 c 0,-0.295 -0.056,-0.574 -0.136,-0.844 z m -11.481,-17.208 -3.279,-6.559 C 14.762,9.8947431 14.163,9.6947431 13.668,9.9417431 13.174,10.188743 12.974,10.789743 13.221,11.283743 l 0.662,1.323 -8.003,4.365 8.594,-14.6099999 19.512,11.2979999 2.943,15.456 c -1.79,1.23 -4.795,2.606 -8.576,3.272 -0.43,-0.24 -0.92,-0.388 -1.447,-0.388 h -6 c -0.515,0 -0.992,0.143 -1.416,0.372 -3.178,-0.568 -5.523,-1.565 -6.947,-2.318 l 5.757,-12.232 c 0.129,-0.278 0.126,-0.599 -0.011,-0.874 z m 5.663,30.052 c -12.735,0 -21.953,-4.3 -21.953,-7.198 0,-1.267 2.098,-2.516 5.683,-3.427 0.033,0.074 0.058,0.151 0.11,0.219 1.583,2.018 5.733,3.685 10.881,4.391 0.55,0.618 1.342,1.015 2.233,1.015 h 6 c 0.884,0 1.672,-0.392 2.221,-1.001 5.198,-0.698 9.388,-2.37 10.984,-4.405 0.055,-0.069 0.081,-0.149 0.114,-0.228 3.586,0.913 5.681,2.163 5.681,3.436 0,2.898 -9.219,7.198 -21.954,7.198 z"
        id="path259"/>
    <rect
        x="21.858999"
        y="36.069744"
        fill="#272223"
        width="4.1869998"
        height="2"
        id="rect261"/>
</svg>
